<svg xmlns="http://www.w3.org/2000/svg" viewBox="0 0 960 560" role="img" aria-labelledby="title desc">
  <title id="title">Data analytics dashboard project</title>
  <desc id="desc">A stylized analytics dashboard with charts and metrics.</desc>
  <rect width="960" height="560" fill="#292b4a"/>
  <rect x="80" y="70" width="800" height="420" rx="18" fill="#1f203a" stroke="#dbdb57" stroke-width="4"/>
  <rect x="120" y="115" width="210" height="90" rx="10" fill="#32355c"/>
  <rect x="375" y="115" width="210" height="90" rx="10" fill="#32355c"/>
  <rect x="630" y="115" width="210" height="90" rx="10" fill="#32355c"/>
  <path d="M150 380 250 300 345 330 455 235 555 270 680 170 815 215" fill="none" stroke="#dbdb57" stroke-width="14" stroke-linecap="round" stroke-linejoin="round"/>
  <g fill="#ffffff">
    <rect x="145" y="245" width="55" height="170" rx="8"/>
    <rect x="235" y="315" width="55" height="100" rx="8"/>
    <rect x="325" y="275" width="55" height="140" rx="8"/>
    <rect x="415" y="335" width="55" height="80" rx="8"/>
  </g>
  <g fill="#dbdb57">
    <circle cx="150" cy="380" r="12"/>
    <circle cx="455" cy="235" r="12"/>
    <circle cx="680" cy="170" r="12"/>
    <circle cx="815" cy="215" r="12"/>
  </g>
</svg>
